HIERARCHY
ROOT Hips
{
  OFFSET -145.157 17.1761 53.2806
  CHANNELS 6 Xposition Yposition Zposition Zrotation Xrotation Yrotation
  JOINT ToSpine
  {
    OFFSET -2.69724 7.43032 -0.144315
    CHANNELS 3 Zrotation Xrotation Yrotation
    JOINT Spine
    {
      OFFSET -0.0310711 10.7595 1.96963
      CHANNELS 3 Zrotation Xrotation Yrotation
      JOINT Spine1
      {
        OFFSET 19.9056 3.91189 0.764692
        CHANNELS 3 Zrotation Xrotation Yrotation
        JOINT Neck
        {
          OFFSET 25.9749 7.03908 -0.130764
          CHANNELS 3 Zrotation Xrotation Yrotation
          JOINT Head
          {
            OFFSET 9.52751 0.295786 -0.907742
            CHANNELS 3 Zrotation Xrotation Yrotation
            End Site
            {
              OFFSET 16.4037 0.713936 2.7358
            }
          }
        }
        JOINT LeftShoulder
        {
          OFFSET 17.7449 4.33886 11.7777
          CHANNELS 3 Zrotation Xrotation Yrotation
          JOINT LeftArm
          {
            OFFSET 0.911315 1.27913 9.80584
            CHANNELS 3 Zrotation Xrotation Yrotation
            JOINT LeftForeArm
            {
              OFFSET 28.6126 1.18197 -3.53199
              CHANNELS 3 Zrotation Xrotation Yrotation
              JOINT LeftHand
              {
                OFFSET 27.5088 0.0218783 0.327423
                CHANNELS 3 Zrotation Xrotation Yrotation
                End Site
                {
                  OFFSET 18.6038 -0.000155887 0.382096
                }
              }
            }
          }
        }
        JOINT RightShoulder
        {
          OFFSET 17.1009 2.89543 -12.2328
          CHANNELS 3 Zrotation Xrotation Yrotation
          JOINT RightArm
          {
            OFFSET 1.4228 0.178766 -10.211
            CHANNELS 3 Zrotation Xrotation Yrotation
            JOINT RightForeArm
            {
              OFFSET 28.733 1.87905 2.64907
              CHANNELS 3 Zrotation Xrotation Yrotation
              JOINT RightHand
              {
                OFFSET 27.4588 0.290562 -0.101845
                CHANNELS 3 Zrotation Xrotation Yrotation
                End Site
                {
                  OFFSET 17.8396 -0.255518 -0.000602873
                }
              }
            }
          }
        }
      }
    }
  }
  JOINT LeftUpLeg
  {
    OFFSET -5.61296 -2.22332 -10.2353
    CHANNELS 3 Zrotation Xrotation Yrotation
    JOINT LeftLeg
    {
      OFFSET 2.56703 -44.7417 -7.93097
      CHANNELS 3 Zrotation Xrotation Yrotation
      JOINT LeftFoot
      {
        OFFSET 3.16933 -46.5642 -3.96578
        CHANNELS 3 Zrotation Xrotation Yrotation
        JOINT LeftToeBase
        {
          OFFSET 0.346054 -6.02161 12.8035
          CHANNELS 3 Zrotation Xrotation Yrotation
          End Site
          {
            OFFSET 0.134235 -1.35082 5.13018
          }
        }
      }
    }
  }
  JOINT RightUpLeg
  {
    OFFSET -5.7928 -1.72406 10.6446
    CHANNELS 3 Zrotation Xrotation Yrotation
    JOINT RightLeg
    {
      OFFSET -2.57161 -44.7178 -7.85259
      CHANNELS 3 Zrotation Xrotation Yrotation
      JOINT RightFoot
      {
        OFFSET -3.10148 -46.5936 -4.03391
        CHANNELS 3 Zrotation Xrotation Yrotation
        JOINT RightToeBase
        {
          OFFSET -0.0828122 -6.13587 12.8035
          CHANNELS 3 Zrotation Xrotation Yrotation
          End Site
          {
            OFFSET -0.131328 -1.35082 5.13018
          }
        }
      }
    }
  }
}
MOTION
Frames:	15
Frame Time:	0.0333333
34.5315 25.0459 65.8523 11.2249 29.1913 174.416 -70.1915 0 88.8779 159.871 58.5456 -67.4619 -31.003 20.6649 18.5645 179.838 13.6193 -167.191 178.471 55.8504 -142.343 -0.75606 31.3845 -4.5336 -148.272 34.4164 -153.983 17.8646 13.6043 -50.012 1.27322 0.0803851 6.77863 0.248982 -0.823001 35.1531 -104.4 -18.1058 89.0235 42.0297 20.5839 114.797 30.1482 -3.60685 -13.9653 -64.0509 4.16015 102.885 -0.720081 29.1286 3.11485 -0.160135 -0.858137 -0.154974 -33.9469 -51.5934 -21.572 -22.2797 -6.08779 100.288 6.3631 69.5163 -6.14233 -5.64662 -12.1425 1.12807 -17.6798 -45.6993 -25.5335 
35.5671 24.4954 67.4563 11.1405 33.3028 170.751 -70.1915 0 88.8779 161.026 57.7985 -71.6565 -31.4014 20.5977 20.6874 -178.907 12.29 -165.309 179.135 54.6853 -141.138 -0.499029 31.533 -5.25297 -149.762 29.5332 -151.706 17.0874 13.7316 -48.2267 2.02413 0.123485 7.21702 0.314245 -1.14066 33.9284 -100.158 -18.7685 90.0766 46.4223 20.5669 111.551 27.7933 -2.74064 -11.694 -66.5846 -0.0977603 101.642 -0.709542 24.8341 7.41454 -0.178444 0.114407 -0.0825649 -34.5065 -49.9084 -25.1685 -19.1107 -6.45916 102.404 7.51468 72.2376 -8.36357 -6.22572 -11.7103 1.12856 -17.8385 -47.5761 -23.2306 
36.5435 24.0274 69.2392 10.976 37.8326 167.549 -70.1915 0 88.8779 163.68 56.3865 -77.018 -32.0605 21.121 23.0067 -179.633 11.0962 -163.754 -179.479 54.0829 -141.812 -0.890032 29.7349 -3.97427 -151.982 24.056 -146.179 15.1777 12.1663 -47.6337 2.65464 0.188211 8.6013 0.371568 -1.48139 32.5045 -96.7775 -17.2576 91.4685 49.9613 20.3572 109.066 28.2779 -2.56686 -10.7361 -69.0847 -4.50175 98.5356 -0.916009 21.207 10.8204 0.42819 1.01157 -0.0959215 -39.1385 -50.2679 -32.7175 -16.646 -5.73548 104.382 9.62131 75.0151 -10.13 -6.18455 -11.5029 1.12485 -17.2084 -46.7039 -22.7364 
37.0877 23.6694 70.8782 11.0829 42.0688 165.123 -70.1915 0 88.8779 166.923 54.5355 -80.9265 -33.1136 22.4803 23.7578 -177.17 10.9412 -161.505 -178.556 53.8893 -139.372 -2.02548 27.8144 -0.185319 -152.723 21.2033 -139.554 13.554 10.7555 -47.2733 3.18632 0.250433 9.46057 0.282404 -1.03686 30.7615 -93.6191 -15.9002 93.1894 54.7519 19.8969 105.949 30.475 -3.83403 -14.6818 -70.3154 -8.12426 95.0124 -0.253656 19.5237 14.6589 1.12723 2.70919 -0.0813931 -41.5133 -50.5784 -36.1367 -15.202 -4.94222 104.576 12.7547 77.342 -11.4051 -6.89374 -10.6915 1.12991 -16.5945 -46.428 -21.4442 
37.1969 23.4075 72.1591 12.2146 44.4747 162.371 -70.1915 0 88.8779 169.604 54.0394 -83.042 -33.0094 24.6017 23.0644 -177.016 10.809 -158.197 179.38 53.8745 -136.947 -2.1853 27.6772 0.299772 -152.234 22.2269 -137.596 13.7392 11.124 -46.7646 5.09966 0.340976 8.97156 0.248857 -0.854067 28.2598 -91.3914 -15.6756 96.2235 54.4632 18.6999 105.257 34.8033 -5.15031 -16.983 -70.2035 -11.1222 92.6582 0.0572515 18.6871 16.8448 1.91639 3.91188 -0.128518 -39.4739 -50.2537 -33.3021 -13.7758 -5.45028 103.558 17.9349 79.8855 -14.4058 -7.45001 -9.89232 1.14044 -14.8716 -45.7251 -17.3458 
37.1049 23.3221 72.8987 14.0002 44.7015 159.575 -70.1915 0 88.8779 171.367 55.2823 -84.3994 -32.4041 26.0224 23.0661 -177.493 10.9591 -153.59 175.851 54.1755 -133.758 -2.55439 24.0808 2.57342 -152.53 22.3241 -131.144 12.8116 9.96585 -47.5198 7.34272 0.291915 5.85529 0.306263 -1.2981 25.8833 -89.1584 -14.7552 100.584 52.4256 17.0867 105.097 41.0742 -6.97974 -19.1523 -68.9842 -13.2529 91.1932 0.257514 18.3417 18.9497 2.1127 4.79328 -0.111882 -39.3503 -48.5555 -35.8563 -12.658 -6.7668 101.991 26.8161 82.5161 -22.2626 -7.72507 -8.90606 1.14563 -13.8643 -42.5595 -18.6811 
36.7073 23.2101 73.0386 15.0805 43.539 158.083 -70.1915 0 88.8779 172.722 56.8561 -85.7503 -32.226 26.3172 24.6099 -178.427 11.5805 -150.075 174.005 55.2858 -132.265 -2.07946 18.2005 3.16195 -153.152 19.9652 -124.486 12.905 9.42015 -49.428 7.89113 0.32689 6.02857 0.391135 -2.2493 23.2332 -87.861 -14.2414 101.19 49.2547 16.9675 106.678 46.1773 -8.47938 -20.4147 -68.0052 -14.3997 89.6925 0.81754 18.6655 20.393 1.66789 5.20838 -0.0165567 -37.0658 -43.1124 -41.5091 -13.2219 -9.20414 99.181 40.8746 84.3727 -34.2629 -7.778 -8.30403 1.14595 -13.1436 -41.3493 -18.0295 
36.3688 22.8958 72.5045 15.571 41.451 157.492 -70.1915 0 88.8779 171.879 58.2596 -84.6347 -31.6906 25.9069 24.8291 179.779 11.4382 -150.225 176.586 56.2789 -135.607 -1.72966 14.8661 3.18485 -151.963 16.6768 -120.242 10.7033 6.94779 -51.7106 11.7238 0.621242 7.55785 0.470986 -3.02613 23.0226 -86.32 -13.9392 100.564 48.0332 17.8895 108.176 49.4435 -8.9264 -19.8801 -67.5419 -15.217 87.4111 1.42955 19.5671 19.3643 1.1611 4.65528 0.032742 -33.5805 -39.9691 -41.0649 -15.1227 -12.4498 95.5067 62.7499 85.483 -53.0802 -7.97045 -8.49305 1.15596 -13.8652 -41.7412 -19.8986 
36.1953 22.5051 71.6165 16.1517 38.5188 157.115 -70.1915 0 88.8779 169.211 59.7406 -81.3613 -31.4413 24.6865 24.2666 178.765 10.858 -149.175 176.272 56.2002 -136.173 -1.33592 11.4392 3.08498 -149.876 11.4489 -114.865 6.88204 3.34882 -56.643 16.1744 0.780159 7.08116 0.449438 -2.65376 23.8064 -84.5693 -13.5847 100.659 48.2469 18.5925 108.657 51.6856 -9.05621 -19.1895 -67.0665 -15.7678 84.8099 1.95098 20.2485 18.5246 0.516324 2.42324 -0.0132027 -29.5765 -35.9901 -41.1657 -17.546 -16.2041 91.3673 81.7715 85.7174 -69.942 -7.97527 -9.27063 1.15761 -13.1343 -41.2518 -18.1651 
35.861 22.2237 70.661 15.7983 35.5603 157.984 -70.1915 0 88.8779 167.141 59.4748 -77.2273 -31.662 23.9766 22.1806 175.993 9.9093 -147.562 172.895 55.885 -134.555 -1.05969 11.5257 1.56702 -147.797 9.93954 -110.532 4.01728 1.22794 -67.0758 20.3936 1.03258 7.2039 0.368997 -1.82206 25.7666 -83.7036 -13.6278 98.8522 49.4334 20.5121 109.521 52.2969 -8.60875 -18.0322 -67.1888 -15.4937 82.5725 2.47987 20.6308 17.977 -0.537687 1.75753 0.0875954 -28.1226 -32.4403 -46.6251 -21.8125 -20.29 85.895 82.1048 85.609 -68.5449 -8.14244 -9.65118 1.165 -12.1027 -40.2672 -15.9074 
35.6251 21.9763 69.5222 15.1098 31.818 159.117 -70.1915 0 88.8779 166.04 60.4166 -74.4976 -30.88 24.3889 20.4656 172.668 9.86322 -148.379 173.592 57.1472 -138.356 -0.72937 9.70892 0.684819 -146.648 11.0114 -103.089 0.0141989 -0.155911 -82.9673 22.9164 2.00657 11.5111 0.467519 -2.52091 26.0636 -83.9517 -14.7185 95.2304 50.728 23.9393 111.306 52.8713 -8.67323 -17.9416 -67.2005 -15.0734 81.3593 2.73845 20.9658 17.2485 -0.651604 2.13428 0.130591 -29.321 -32.2825 -49.8165 -26.8184 -24.4814 80.4423 73.4574 85.3858 -58.0637 -8.28153 -9.43155 1.17002 -12.7038 -41.0603 -16.9103 
35.4707 21.7926 68.4543 14.5853 28.1138 160.191 -70.1915 0 88.8779 164.975 61.0422 -71.5929 -30.531 24.7593 18.5204 170.633 9.9642 -147.774 173.173 58.185 -140.138 -0.0333323 7.50549 -2.63132 -145.956 12.124 -95.0653 -0.949811 1.4778 -102.609 19.2197 2.89192 18.4449 0.531979 -3.14298 25.2366 -83.3935 -17.0368 91.8573 52.6831 27.2657 112.256 53.5213 -8.37372 -17.1065 -66.8357 -14.3907 81.448 2.65928 21.483 16.9124 -1.1028 1.24076 0.122548 -28.433 -32.0844 -48.2651 -31.7386 -27.3558 76.2575 58.9665 84.8877 -42.9561 -8.42285 -9.94895 1.17502 -11.7664 -40.2892 -14.6205 
35.4924 21.5826 67.3528 13.9561 24.1412 161.047 -70.1915 0 88.8779 163.092 61.9172 -68.6898 -30.0118 25.0377 16.5773 170.023 10.8094 -148.64 175.228 59.392 -142.61 0.561043 5.65495 -6.22638 -143.022 15.4603 -85.8742 2.87943 -0.00924915 -122.115 15.5207 3.08571 23.4338 0.586993 -3.69402 24.7325 -82.5959 -18.9115 87.7903 53.5996 30.11 113.386 55.2439 -7.95733 -15.7082 -66.3759 -13.9547 81.7195 2.56226 21.9799 16.095 -1.82493 0.760687 0.172031 -28.6836 -32.3553 -48.1192 -36.4098 -29.4864 73.526 44.8963 83.9054 -28.6003 -8.19549 -10.1698 1.16689 -11.2063 -38.9591 -14.4563 
35.7526 21.4064 66.2004 13.0863 19.7299 161.77 -70.1915 0 88.8779 159.24 63.2297 -64.8893 -28.6024 24.7332 14.9306 169.363 11.5881 -149.066 175.668 60.3689 -143.546 1.34254 5.13656 -12.0024 -137.204 21.6888 -80.2543 8.96259 -6.36961 -134.781 16.294 3.19814 23.3283 0.605259 -3.74106 25.188 -82.4686 -18.9278 84.2544 52.0604 31.8216 115.602 56.883 -7.58241 -14.4888 -65.8457 -13.7902 81.5917 2.38526 22.8775 15.5691 -2.75014 -0.803361 0.145367 -26.439 -30.0344 -49.0589 -40.8435 -31.168 71.8769 34.2206 82.6225 -18.6914 -8.0248 -10.1927 1.16133 -11.1882 -39.0246 -14.2854 
36.1784 21.3234 65.0446 11.8306 14.984 162.402 -70.1915 0 88.8779 153.799 63.9122 -61.367 -27.9635 23.195 14.5271 168.997 12.2694 -149.559 174.248 60.8396 -142.558 2.25403 4.57671 -19.2711 -130.829 25.7921 -79.7219 13.8621 -13.6363 -139.311 17.9313 2.80129 18.9748 0.609786 -3.79813 25.032 -81.9719 -20.8553 81.5515 53.4713 33.4329 115.437 58.0519 -7.82878 -14.6031 -65.4642 -13.9172 80.8718 2.14412 23.7398 14.1103 -2.63969 -0.845042 0.126612 -27.6689 -30.7731 -50.0584 -45.1298 -32.5808 71.1969 26.8007 81.1903 -12.4763 -7.73434 -10.287 1.15212 -10.7969 -39.2216 -12.443 
